# Blender 4.5.0
# www.blender.org
mtllib Arms1.mtl
o Cube.001
v -3.662436 -0.535949 3.343062
v -2.598099 -0.612805 3.081330
v -3.652237 -0.462952 3.814942
v -2.906509 -0.488595 3.654490
v -3.597891 -0.388289 4.503843
v -3.568352 0.476724 4.273595
v -2.762524 0.475336 4.389235
v -2.787106 -0.390183 4.617866
v -3.722337 -0.251462 5.499234
v -3.696885 0.495030 5.278232
v -2.849732 0.474637 5.171556
v -2.874541 -0.271854 5.392553
v -3.234915 0.591227 6.828502
v -2.803277 0.612484 6.819611
v -3.160026 -0.692826 3.210812
v -3.287643 -0.569405 3.738696
v -3.167616 0.576495 4.335165
v -3.194504 -0.496999 4.564134
v -3.277193 0.567639 5.222056
v -3.303648 -0.353088 5.443017
v -3.052399 0.620550 6.826045
v -3.740768 0.076584 3.708549
v -2.794616 0.049245 3.563232
v -3.680349 0.099432 4.384526
v -2.678398 0.093914 4.503440
v -3.809577 0.116550 5.396942
v -2.762756 0.089915 5.285149
v -3.354848 0.526845 4.303477
v -3.465567 0.531335 5.249581
v -3.166477 0.602335 6.823794
v -3.407789 -0.610350 3.284274
v -3.454256 -0.528048 3.774275
v -3.383082 -0.442662 4.532857
v -3.491533 -0.302275 5.470579
v -2.900999 -0.650488 3.145799
v -3.114418 -0.540802 3.699504
v -3.004389 -0.443591 4.592659
v -3.110422 -0.312471 5.417764
v -2.979227 0.525915 4.363972
v -3.085132 0.521138 5.196758
v -2.937270 0.616419 6.828418
v -2.805753 0.605137 6.731766
v -2.833181 0.129155 6.744112
v -3.259539 0.586099 6.745870
v -3.064381 0.617730 6.740549
v -3.334230 0.325173 6.779103
v -2.731725 0.315663 6.739709
v -3.182419 0.598550 6.739886
v -2.945152 0.611340 6.741447
v -3.655671 0.383191 3.646872
v -2.865371 0.467998 3.622695
v -3.703583 -0.376345 3.238217
v -2.842525 0.265803 3.510742
v -2.694783 -0.010984 3.347131
v -3.752876 -0.003362 3.445369
v -3.165445 -0.762689 2.980327
v -3.422919 -0.684594 3.045680
v -2.893585 -0.698546 2.991022
v -3.242662 0.576335 3.715144
v -3.068192 0.556841 3.689031
v -3.414428 0.567715 3.725733
v -3.619275 0.488559 3.700918
v -2.589496 -0.639398 2.996135
v -3.690484 -0.609131 3.110500
v -2.577981 -0.545764 3.046014
v -2.764246 0.461199 6.820672
v -3.318914 0.331895 6.823638
v -2.730585 0.323961 6.793178
v -3.332405 0.176110 6.794973
v -3.082237 0.005902 6.750611
v -3.201566 0.051805 6.765128
v -2.960383 0.030944 6.749326
v -2.859440 0.111313 6.759487
v -2.792888 0.602648 6.848712
v -3.243986 0.585898 6.867770
v -3.049873 0.619524 6.864542
v -3.170597 0.598575 6.866542
v -2.930970 0.616164 6.858056
v -3.327049 0.248955 6.808424
v -2.831650 0.131839 6.761983
v -2.786155 0.588446 6.845707
v -3.274643 0.451971 6.844065
v 3.662436 -0.535949 3.343062
v 2.598099 -0.612805 3.081330
v 3.652237 -0.462952 3.814942
v 2.906509 -0.488595 3.654490
v 3.597891 -0.388289 4.503843
v 3.568352 0.476724 4.273595
v 2.762524 0.475336 4.389235
v 2.787106 -0.390183 4.617866
v 3.722337 -0.251462 5.499234
v 3.696885 0.495030 5.278232
v 2.849732 0.474637 5.171556
v 2.874541 -0.271854 5.392553
v 3.234915 0.591227 6.828502
v 2.803277 0.612484 6.819611
v 3.160026 -0.692826 3.210812
v 3.287643 -0.569405 3.738696
v 3.167616 0.576495 4.335165
v 3.194504 -0.496999 4.564134
v 3.277193 0.567639 5.222056
v 3.303648 -0.353088 5.443017
v 3.052399 0.620550 6.826045
v 3.740768 0.076584 3.708549
v 2.794616 0.049245 3.563232
v 3.680349 0.099432 4.384526
v 2.678398 0.093914 4.503440
v 3.809577 0.116550 5.396942
v 2.762756 0.089915 5.285149
v 3.354848 0.526845 4.303477
v 3.465567 0.531335 5.249581
v 3.166477 0.602335 6.823794
v 3.407789 -0.610350 3.284274
v 3.454256 -0.528048 3.774275
v 3.383082 -0.442662 4.532857
v 3.491533 -0.302275 5.470579
v 2.900999 -0.650488 3.145799
v 3.114418 -0.540802 3.699504
v 3.004389 -0.443591 4.592659
v 3.110422 -0.312471 5.417764
v 2.979227 0.525915 4.363972
v 3.085132 0.521138 5.196758
v 2.937270 0.616419 6.828418
v 2.805753 0.605137 6.731766
v 2.833181 0.129155 6.744112
v 3.259539 0.586099 6.745870
v 3.064381 0.617730 6.740549
v 3.334230 0.325173 6.779103
v 2.731725 0.315663 6.739709
v 3.182419 0.598550 6.739886
v 2.945152 0.611340 6.741447
v 3.655671 0.383191 3.646872
v 2.865371 0.467998 3.622695
v 3.703583 -0.376345 3.238217
v 2.842525 0.265803 3.510742
v 2.694783 -0.010984 3.347131
v 3.752876 -0.003362 3.445369
v 3.165445 -0.762689 2.980327
v 3.422919 -0.684594 3.045680
v 2.893585 -0.698546 2.991022
v 3.242662 0.576335 3.715144
v 3.068192 0.556841 3.689031
v 3.414428 0.567715 3.725733
v 3.619275 0.488559 3.700918
v 2.589496 -0.639398 2.996135
v 3.690484 -0.609131 3.110500
v 2.577981 -0.545764 3.046014
v 2.764246 0.461199 6.820672
v 3.318914 0.331895 6.823638
v 2.730585 0.323961 6.793178
v 3.332405 0.176110 6.794973
v 3.082237 0.005902 6.750611
v 3.201566 0.051805 6.765128
v 2.960383 0.030944 6.749326
v 2.859440 0.111313 6.759487
v 2.792888 0.602648 6.848712
v 3.243986 0.585898 6.867770
v 3.049873 0.619524 6.864542
v 3.170597 0.598575 6.866542
v 2.930970 0.616164 6.858056
v 3.327049 0.248955 6.808424
v 2.831650 0.131839 6.761983
v 2.786155 0.588446 6.845707
v 3.274643 0.451971 6.844065
vn -0.9819 -0.1597 0.1020
vn -0.9760 -0.1444 0.1632
vn -0.9816 -0.1586 0.1064
vn 0.2123 -0.9327 0.2915
vn 0.1951 -0.9334 0.3013
vn 0.2353 -0.9497 0.2067
vn 0.2287 -0.9572 0.1774
vn 0.1983 -0.9348 0.2948
vn 0.1790 -0.9360 0.3031
vn -0.2384 0.9691 0.0631
vn -0.3031 0.9502 0.0726
vn -0.2515 0.9676 0.0227
vn -0.2151 0.9765 0.0159
vn 0.8953 0.0012 0.4455
vn 0.9778 0.2087 -0.0185
vn 0.9873 0.0535 0.1495
vn -0.9845 -0.1550 0.0820
vn -0.9954 0.0802 0.0518
vn -0.9973 -0.0594 0.0440
vn 0.2259 -0.9660 0.1259
vn 0.2200 -0.9670 0.1285
vn 0.2787 -0.9396 0.1987
vn 0.2544 -0.9458 0.2019
vn -0.9826 -0.1854 -0.0136
vn -0.9987 0.0484 -0.0167
vn 1.0000 0.0005 0.0016
vn 0.9773 0.2090 -0.0333
vn 0.9706 0.2375 0.0393
vn 0.9976 -0.0360 0.0595
vn -0.1737 0.9845 -0.0244
vn -0.1859 0.9823 -0.0211
vn -0.9805 -0.1550 0.1211
vn -0.9943 0.0571 0.0899
vn -0.1648 0.9863 -0.0122
vn -0.1590 0.9872 -0.0141
vn -0.1613 0.9863 0.0358
vn -0.1615 0.9865 0.0263
vn 0.4052 -0.8921 0.1998
vn 0.7337 -0.6704 0.1102
vn 0.7774 -0.6266 0.0540
vn 0.9661 0.2470 -0.0752
vn 0.9465 0.2763 -0.1665
vn 0.9006 0.2989 -0.3155
vn 0.0916 0.9936 -0.0663
vn -0.0297 0.9990 -0.0347
vn -0.0591 0.9983 0.0011
vn 0.0447 0.9990 0.0077
vn 0.2454 0.9694 0.0093
vn 0.0258 0.9996 0.0140
vn -0.0175 0.9997 -0.0175
vn 0.1896 0.9817 -0.0181
vn -0.2600 -0.9560 0.1362
vn -0.0413 -0.9878 0.1498
vn -0.0005 -0.9923 0.1242
vn -0.2561 -0.9592 0.1198
vn -0.0402 -0.9772 0.2084
vn -0.2775 -0.9343 0.2239
vn 0.2549 0.9669 -0.0141
vn 0.0118 0.9996 0.0262
vn -0.2060 -0.9310 0.3012
vn 0.0143 -0.9545 0.2978
vn 0.0138 -0.9628 0.2699
vn -0.2288 -0.9471 0.2253
vn -0.9611 0.2760 -0.0034
vn -0.9570 0.2873 0.0394
vn 0.9740 -0.2259 0.0176
vn 0.9529 -0.2904 0.0873
vn 0.9679 -0.2296 -0.1025
vn -0.9561 0.2871 0.0582
vn -0.9523 0.2936 0.0827
vn 0.9654 -0.2047 0.1614
vn 0.9185 -0.1222 0.3760
vn 0.9283 -0.1344 0.3466
vn -0.2336 -0.9479 0.2167
vn -0.2680 -0.9538 0.1357
vn -0.1940 -0.9310 0.3091
vn -0.2515 -0.9603 0.1206
vn -0.3019 -0.9217 0.2435
vn 0.3130 0.9494 -0.0261
vn 0.2575 0.9663 0.0035
vn 0.1748 0.9844 -0.0199
vn 0.0834 0.9936 -0.0756
vn 0.0543 0.9975 0.0457
vn 0.9070 -0.4186 0.0468
vn -0.9447 0.1405 0.2962
vn -0.9143 0.3107 0.2597
vn 0.9704 0.2358 -0.0518
vn 0.9707 0.2345 -0.0516
vn 0.9750 0.1800 -0.1307
vn 0.8791 -0.0810 0.4698
vn -0.0646 0.9973 0.0345
vn 0.0548 0.9946 0.0882
vn -0.1628 0.9842 0.0700
vn -0.1614 0.9834 0.0830
vn 0.0732 0.9862 0.1486
vn 0.3025 -0.9264 0.2242
vn -0.0057 -0.9635 0.2676
vn -0.3082 -0.8921 0.3303
vn -0.3603 -0.8627 0.3549
vn -0.9417 -0.0874 0.3250
vn -0.9436 -0.0652 0.3245
vn 0.8799 -0.4735 0.0399
vn -0.9376 0.1961 0.2872
vn 0.9675 0.2474 -0.0528
vn 0.8781 0.4505 -0.1612
vn -0.9295 0.2928 0.2241
vn -0.9576 0.2816 0.0608
vn -0.9502 0.2503 -0.1855
vn 0.9819 -0.1597 0.1020
vn 0.9816 -0.1586 0.1064
vn 0.9760 -0.1444 0.1632
vn -0.2123 -0.9327 0.2915
vn -0.2287 -0.9572 0.1774
vn -0.2353 -0.9497 0.2067
vn -0.1951 -0.9334 0.3013
vn -0.1983 -0.9348 0.2948
vn -0.1790 -0.9360 0.3031
vn 0.2384 0.9691 0.0631
vn 0.2151 0.9765 0.0159
vn 0.2515 0.9676 0.0227
vn 0.3031 0.9502 0.0726
vn -0.8953 0.0012 0.4455
vn -0.9873 0.0535 0.1495
vn -0.9778 0.2087 -0.0185
vn 0.9973 -0.0594 0.0440
vn 0.9954 0.0802 0.0518
vn 0.9845 -0.1550 0.0820
vn -0.2259 -0.9660 0.1259
vn -0.2544 -0.9458 0.2019
vn -0.2787 -0.9396 0.1987
vn -0.2200 -0.9670 0.1285
vn 0.9987 0.0484 -0.0167
vn 0.9826 -0.1854 -0.0136
vn -1.0000 0.0005 0.0016
vn -0.9976 -0.0360 0.0595
vn -0.9706 0.2375 0.0393
vn -0.9773 0.2090 -0.0333
vn 0.1859 0.9823 -0.0211
vn 0.1737 0.9845 -0.0244
vn 0.9943 0.0571 0.0899
vn 0.9805 -0.1550 0.1211
vn 0.1648 0.9863 -0.0122
vn 0.1615 0.9865 0.0263
vn 0.1613 0.9863 0.0358
vn 0.1590 0.9872 -0.0141
vn -0.4052 -0.8921 0.1998
vn -0.7774 -0.6266 0.0540
vn -0.7337 -0.6704 0.1102
vn -0.9661 0.2470 -0.0752
vn -0.9006 0.2989 -0.3155
vn -0.9465 0.2763 -0.1665
vn -0.0916 0.9936 -0.0663
vn -0.0447 0.9990 0.0077
vn 0.0591 0.9983 0.0011
vn 0.0297 0.9990 -0.0347
vn -0.2454 0.9694 0.0093
vn -0.1896 0.9817 -0.0181
vn 0.0175 0.9997 -0.0175
vn -0.0258 0.9996 0.0140
vn 0.2600 -0.9560 0.1362
vn 0.2561 -0.9592 0.1198
vn 0.0005 -0.9923 0.1242
vn 0.0413 -0.9878 0.1498
vn 0.2775 -0.9343 0.2239
vn 0.0402 -0.9772 0.2084
vn -0.2549 0.9669 -0.0141
vn -0.0118 0.9996 0.0262
vn 0.2060 -0.9310 0.3012
vn 0.2288 -0.9471 0.2253
vn -0.0138 -0.9628 0.2699
vn -0.0143 -0.9545 0.2978
vn 0.9611 0.2760 -0.0034
vn 0.9570 0.2873 0.0394
vn -0.9740 -0.2259 0.0176
vn -0.9529 -0.2904 0.0873
vn -0.9679 -0.2296 -0.1025
vn 0.9561 0.2871 0.0582
vn 0.9523 0.2936 0.0827
vn -0.9654 -0.2047 0.1614
vn -0.9283 -0.1344 0.3466
vn -0.9185 -0.1222 0.3760
vn 0.2336 -0.9479 0.2167
vn 0.2680 -0.9538 0.1357
vn 0.1940 -0.9310 0.3091
vn 0.2515 -0.9603 0.1206
vn 0.3019 -0.9217 0.2435
vn -0.3130 0.9494 -0.0261
vn -0.2575 0.9663 0.0035
vn -0.1748 0.9844 -0.0199
vn -0.0834 0.9936 -0.0756
vn -0.0543 0.9975 0.0457
vn -0.9070 -0.4186 0.0468
vn 0.9143 0.3107 0.2597
vn 0.9447 0.1405 0.2962
vn -0.9707 0.2345 -0.0516
vn -0.9704 0.2358 -0.0518
vn -0.9750 0.1800 -0.1307
vn -0.8791 -0.0810 0.4698
vn -0.0548 0.9946 0.0882
vn 0.0646 0.9973 0.0345
vn 0.1628 0.9842 0.0700
vn 0.1614 0.9834 0.0830
vn -0.0732 0.9862 0.1486
vn -0.3025 -0.9264 0.2242
vn 0.0057 -0.9635 0.2676
vn 0.3082 -0.8921 0.3303
vn 0.3603 -0.8627 0.3549
vn 0.9436 -0.0652 0.3245
vn 0.9417 -0.0874 0.3250
vn -0.8799 -0.4735 0.0399
vn 0.9376 0.1961 0.2872
vn -0.9675 0.2474 -0.0528
vn -0.8781 0.4505 -0.1612
vn 0.9576 0.2816 0.0608
vn 0.9295 0.2928 0.2241
vn 0.9502 0.2503 -0.1855
vt 0.422719 0.000000
vt 0.375000 0.000000
vt 0.312500 0.750000
vt 0.375000 0.750000
vt 0.812500 0.750000
vt 0.875000 0.750000
vt 0.500000 0.750000
vt 0.564882 0.750000
vt 0.500000 0.000000
vt 0.312500 0.750000
vt 0.312500 0.750000
vt 0.500000 0.000000
vt 0.625000 0.750000
vt 0.500000 0.750000
vt 0.812500 0.750000
vt 0.361310 0.750000
vt 0.375000 0.750000
vt 0.558439 0.750000
vt 0.687500 0.750000
vt 0.750000 0.750000
vt 0.750000 0.750000
vt 0.687500 0.750000
vt 0.750000 0.750000
vt 0.687500 0.750000
vt 0.187500 0.750000
vt 0.250000 0.750000
vt 0.250000 0.750000
vt 0.187500 0.750000
vt 0.687500 0.750000
vt 0.187500 0.750000
vt 0.250000 0.750000
vt 0.625000 0.000000
vt 0.592678 0.000000
vt 0.393211 0.750000
vt 0.125000 0.750000
vt 0.500000 0.750000
vt 0.500000 0.000000
vt 0.125000 0.750000
vt 0.430418 0.000000
vt 0.500000 0.000000
vt 0.556552 0.000000
s 1
usemtl Material
f 52/1/1 64/2/2 1/2/3
f 35/3/4 2/4/5 4/4/6 36/3/7
f 58/3/8 63/4/9 2/4/5 35/3/4
f 61/5/10 62/6/11 6/6/12 28/5/13
f 54/7/14 53/8/15 23/7/16
f 52/1/1 1/2/3 3/2/17 22/9/18 55/9/19
f 37/10/20 8/4/21 12/4/22 38/11/23
f 22/9/18 3/2/17 5/2/24 24/12/25
f 36/3/7 4/4/6 8/4/21 37/10/20
f 25/7/26 7/13/27 11/13/28 27/14/29
f 28/5/13 6/6/12 10/6/30 29/5/31
f 24/12/25 5/2/24 9/2/32 26/12/33
f 48/15/34 44/6/35 13/6/36 30/15/37
f 73/16/38 43/17/39 80/4/40
f 66/18/41 14/13/42 81/13/43
f 49/19/44 45/20/45 21/21/46 41/19/47
f 39/22/48 17/21/49 19/23/50 40/24/51
f 32/25/52 16/26/53 18/27/54 33/28/55
f 33/28/55 18/27/54 20/27/56 34/28/57
f 60/29/58 59/23/59 17/21/49 39/22/48
f 57/30/60 56/31/61 15/26/62 31/25/63
f 31/25/63 15/26/62 16/26/53 32/25/52
f 6/32/64 24/12/25 26/12/33 10/32/65
f 8/4/66 25/7/26 27/14/29 12/4/67
f 4/4/68 23/7/16 25/7/26 8/4/66
f 50/33/69 22/9/18 24/12/25 6/32/64 62/32/70
f 50/33/69 55/9/19 22/9/18
f 63/4/71 65/34/72 2/4/73
f 1/35/74 31/25/63 32/25/52 3/35/75
f 64/35/76 57/30/60 31/25/63 1/35/74
f 5/35/77 33/28/55 34/28/57 9/35/78
f 3/35/75 32/25/52 33/28/55 5/35/77
f 45/20/45 48/15/34 30/15/37 21/21/46
f 17/21/49 28/5/13 29/5/31 19/23/50
f 59/23/59 61/5/10 28/5/13 17/21/49
f 51/13/79 60/29/58 39/22/48 7/13/80
f 7/13/80 39/22/48 40/24/51 11/13/81
f 42/13/82 49/19/44 41/19/47 14/13/83
f 16/26/53 36/3/7 37/10/20 18/27/54
f 18/27/54 37/10/20 38/11/23 20/27/56
f 56/31/61 58/3/8 35/3/4 15/26/62
f 15/26/62 35/3/4 36/3/7 16/26/53
f 11/13/81 40/24/51 49/19/44 42/13/82
f 19/23/50 29/5/31 48/15/34 45/20/45
f 12/4/67 27/14/29 47/36/84 43/17/39
f 10/32/65 26/12/33 46/37/85 44/32/86
f 40/24/51 19/23/50 45/20/45 49/19/44
f 29/5/31 10/6/30 44/6/35 48/15/34
f 27/14/29 11/13/28 42/13/87 47/36/88
f 23/7/16 53/8/15 51/13/89 7/13/27 25/7/26
f 2/4/73 65/34/72 54/7/14 23/7/16 4/4/90
f 41/19/47 21/21/46 76/21/91 78/19/92
f 21/21/46 30/15/37 77/5/93 76/21/91
f 30/15/37 13/6/36 75/6/94 77/5/93
f 14/13/83 41/19/47 78/19/92 74/13/95
f 38/11/23 12/4/22 43/17/39 73/16/38 72/3/96
f 20/27/56 38/11/23 72/3/96 70/26/97
f 34/28/57 20/27/56 70/26/97 71/28/98
f 9/35/78 34/28/57 71/28/98 69/38/99
f 26/12/33 9/2/32 69/2/100 79/39/101 46/37/85
f 43/17/39 47/36/84 68/36/102 80/4/40
f 46/37/85 79/39/101 67/40/103
f 47/36/88 42/13/87 14/13/42 66/18/41 68/36/104
f 14/13/42 74/13/105 81/13/43
f 44/32/86 46/37/85 67/40/103 82/41/106 13/32/107
f 13/32/107 82/41/106 75/32/108
f 134/1/109 83/2/110 146/2/111
f 117/3/112 118/3/113 86/4/114 84/4/115
f 140/3/116 117/3/112 84/4/115 145/4/117
f 143/5/118 110/5/119 88/6/120 144/6/121
f 136/7/122 105/7/123 135/8/124
f 134/1/109 137/9/125 104/9/126 85/2/127 83/2/110
f 119/10/128 120/11/129 94/4/130 90/4/131
f 104/9/126 106/12/132 87/2/133 85/2/127
f 118/3/113 119/10/128 90/4/131 86/4/114
f 107/7/134 109/14/135 93/13/136 89/13/137
f 110/5/119 111/5/138 92/6/139 88/6/120
f 106/12/132 108/12/140 91/2/141 87/2/133
f 130/15/142 112/15/143 95/6/144 126/6/145
f 155/16/146 162/4/147 125/17/148
f 148/18/149 163/13/150 96/13/151
f 131/19/152 123/19/153 103/21/154 127/20/155
f 121/22/156 122/24/157 101/23/158 99/21/159
f 114/25/160 115/28/161 100/27/162 98/26/163
f 115/28/161 116/28/164 102/27/165 100/27/162
f 142/29/166 121/22/156 99/21/159 141/23/167
f 139/30/168 113/25/169 97/26/170 138/31/171
f 113/25/169 114/25/160 98/26/163 97/26/170
f 88/32/172 92/32/173 108/12/140 106/12/132
f 90/4/174 94/4/175 109/14/135 107/7/134
f 86/4/176 90/4/174 107/7/134 105/7/123
f 132/33/177 144/32/178 88/32/172 106/12/132 104/9/126
f 132/33/177 104/9/126 137/9/125
f 145/4/179 84/4/180 147/34/181
f 83/35/182 85/35/183 114/25/160 113/25/169
f 146/35/184 83/35/182 113/25/169 139/30/168
f 87/35/185 91/35/186 116/28/164 115/28/161
f 85/35/183 87/35/185 115/28/161 114/25/160
f 127/20/155 103/21/154 112/15/143 130/15/142
f 99/21/159 101/23/158 111/5/138 110/5/119
f 141/23/167 99/21/159 110/5/119 143/5/118
f 133/13/187 89/13/188 121/22/156 142/29/166
f 89/13/188 93/13/189 122/24/157 121/22/156
f 124/13/190 96/13/191 123/19/153 131/19/152
f 98/26/163 100/27/162 119/10/128 118/3/113
f 100/27/162 102/27/165 120/11/129 119/10/128
f 138/31/171 97/26/170 117/3/112 140/3/116
f 97/26/170 98/26/163 118/3/113 117/3/112
f 93/13/189 124/13/190 131/19/152 122/24/157
f 101/23/158 127/20/155 130/15/142 111/5/138
f 94/4/175 125/17/148 129/36/192 109/14/135
f 92/32/173 126/32/193 128/37/194 108/12/140
f 122/24/157 131/19/152 127/20/155 101/23/158
f 111/5/138 130/15/142 126/6/145 92/6/139
f 109/14/135 129/36/195 124/13/196 93/13/136
f 105/7/123 107/7/134 89/13/137 133/13/197 135/8/124
f 84/4/180 86/4/198 105/7/123 136/7/122 147/34/181
f 123/19/153 160/19/199 158/21/200 103/21/154
f 103/21/154 158/21/200 159/5/201 112/15/143
f 112/15/143 159/5/201 157/6/202 95/6/144
f 96/13/191 156/13/203 160/19/199 123/19/153
f 120/11/129 154/3/204 155/16/146 125/17/148 94/4/130
f 102/27/165 152/26/205 154/3/204 120/11/129
f 116/28/164 153/28/206 152/26/205 102/27/165
f 91/35/186 151/38/207 153/28/206 116/28/164
f 108/12/140 128/37/194 161/39/208 151/2/209 91/2/141
f 125/17/148 162/4/147 150/36/210 129/36/192
f 128/37/194 149/40/211 161/39/208
f 129/36/195 150/36/212 148/18/149 96/13/151 124/13/196
f 96/13/151 163/13/150 156/13/213
f 126/32/193 95/32/214 164/41/215 149/40/211 128/37/194
f 95/32/214 157/32/216 164/41/215
