# Blender 4.5.0
# www.blender.org
mtllib Bicep.mtl
o Cube.003
v -2.575032 -0.863717 1.851182
v -3.765742 -0.819741 1.651595
v -2.598681 -0.728103 2.724853
v -3.645685 -0.664086 2.345027
v -3.710119 0.573420 2.256877
v -2.558794 0.503183 2.631666
v -3.769558 -0.624034 3.323886
v -3.725950 0.474335 3.081410
v -3.884536 -0.572733 3.839416
v -3.850226 0.165926 3.676161
v -3.853535 -0.082082 2.307110
v -2.470756 -0.144513 2.684174
v -3.874681 -0.078825 3.215255
v -3.965468 -0.208683 3.759948
v -3.100104 -0.778370 2.420269
v -3.105770 0.655033 2.314859
v -3.278690 -0.725708 3.282476
v -3.225049 0.583870 3.052970
v -3.843829 -0.492867 1.627245
v -3.793274 -0.364048 2.321046
v -3.866559 -0.339290 3.273064
v -3.969487 -0.374792 3.795600
v -2.534546 -0.424356 2.703787
v -2.514964 0.166254 2.657210
v -3.826934 0.243179 2.285975
v -3.842753 0.174985 3.149397
v -3.951879 -0.037855 3.721389
v -2.833653 0.460239 3.260069
v -2.786329 -0.653062 3.324554
v -2.740195 0.447375 3.210190
v -3.882878 -0.566038 3.914972
v -3.965217 -0.188199 3.929199
v -2.625218 -0.130291 3.194382
v -3.648949 0.207421 3.724797
v -3.392934 -0.706716 3.659424
v -3.370061 0.351157 3.561185
v -2.707017 -0.386612 3.259735
v -3.959074 -0.360071 3.939788
v -3.943210 -0.014028 3.903085
v -2.685436 0.142466 3.205076
v -3.019280 -0.662803 3.452271
v -3.851453 0.187492 3.836750
v -3.778046 -0.603949 3.860926
v -3.800385 -0.811547 1.585903
v -3.817297 0.497794 1.656529
v -2.612774 -0.866854 1.837554
v -2.568702 -0.831653 1.849005
v -2.512424 -0.533531 1.877986
v -3.864434 -0.483776 1.590750
v -3.915524 -0.213954 1.595092
v -3.232854 -0.903295 1.702457
v -3.921930 -0.187398 1.595223
v -3.891301 0.169295 1.622023
v -2.450519 -0.219663 1.909066
v -2.501932 0.126625 1.917675
v -2.553797 0.461390 1.925532
v -3.196362 0.597843 1.795416
v -2.575633 -0.862994 1.845741
v -3.562897 -0.859152 1.634154
vn 0.0188 -0.9888 0.1482
vn 0.1338 -0.9803 -0.1450
vn 0.0593 -0.9971 0.0471
vn -0.9260 -0.2277 0.3011
vn -0.9163 -0.2568 0.3074
vn -0.9316 -0.3596 0.0534
vn -0.9627 -0.2673 0.0432
vn -0.8765 -0.1748 0.4485
vn -0.8780 -0.1774 0.4447
vn 0.0615 -0.9896 0.1302
vn -0.0680 -0.9890 0.1316
vn -0.1202 -0.9720 0.2018
vn 0.9897 0.1428 0.0078
vn 0.9900 0.1412 0.0044
vn 0.9775 0.1491 0.1493
vn 0.9758 0.1554 0.1540
vn 0.0228 0.9951 -0.0966
vn -0.1312 0.9869 -0.0939
vn -0.1502 0.9886 -0.0105
vn 0.0685 0.9976 -0.0045
vn -0.1998 0.9448 0.2595
vn -0.0164 0.9708 0.2394
vn -0.9127 -0.3861 -0.1342
vn -0.9631 -0.2359 -0.1292
vn -0.9260 -0.3751 -0.0432
vn -0.9759 -0.2088 -0.0636
vn -0.1693 0.9766 -0.1324
vn -0.9676 0.2509 -0.0277
vn -0.9947 -0.0035 -0.1024
vn -0.9968 0.0235 -0.0765
vn -0.9725 0.2243 -0.0623
vn -0.9763 0.2113 0.0467
vn -0.9987 -0.0370 0.0346
vn 0.9781 -0.2012 0.0525
vn 0.9982 -0.0496 0.0327
vn 0.9862 -0.0193 0.1642
vn 0.9630 -0.2015 0.1787
vn -0.9818 0.1670 0.0907
vn -0.9907 -0.0866 0.1049
vn 0.1590 0.9576 0.2402
vn -0.1518 0.9049 0.3977
vn 0.2684 0.9585 -0.0962
vn 0.2315 0.9714 0.0527
vn -0.2034 -0.9706 0.1288
vn -0.0429 -0.9970 0.0639
vn -0.2208 -0.9752 0.0148
vn -0.1924 -0.9811 -0.0209
vn -0.2002 -0.9584 0.2034
vn -0.1974 -0.9765 0.0868
vn 0.9705 -0.2007 -0.1339
vn 0.9795 -0.1966 0.0445
vn 0.9793 -0.1993 -0.0367
vn -0.9669 -0.2174 0.1337
vn -0.9562 0.2762 0.0971
vn -0.9482 0.3122 0.0587
vn -0.9310 0.3648 0.0099
vn -0.9132 0.4071 -0.0181
vn -0.2172 0.8974 0.3840
vn 0.1172 -0.9871 0.1088
vn -0.1332 -0.9904 0.0366
vn 0.9540 -0.0243 0.2989
vn 0.9325 -0.1957 0.3035
vn 0.9403 0.1649 0.2977
vn -0.9984 0.0522 0.0230
vn -0.9660 0.2584 -0.0110
vn -0.9831 -0.1733 0.0595
vn -0.9058 0.4222 -0.0363
vn -0.9267 -0.3657 0.0865
vn -0.2635 -0.9633 0.0507
vn -0.2461 -0.9688 0.0300
vn -0.2970 -0.9506 0.0907
vn 0.9400 0.1541 0.3045
vn 0.0888 -0.9897 0.1125
vn 0.9643 -0.1938 0.1806
vn 0.9323 -0.1880 0.3089
vn 0.2067 0.9681 0.1415
vt 0.381985 0.000000
vt 0.375000 0.000000
vt 0.812500 0.750000
vt 0.875000 0.750000
vt 0.500000 0.000000
vt 0.500000 0.000000
vt 0.312500 0.750000
vt 0.375000 0.750000
vt 0.375000 0.750000
vt 0.312500 0.750000
vt 0.500000 0.750000
vt 0.625000 0.750000
vt 0.500000 0.750000
vt 0.564882 0.750000
vt 0.687500 0.750000
vt 0.750000 0.750000
vt 0.750000 0.750000
vt 0.687500 0.750000
vt 0.687500 0.750000
vt 0.750000 0.750000
vt 0.187500 0.750000
vt 0.250000 0.750000
vt 0.393211 0.750000
vt 0.500000 0.750000
vt 0.625000 0.000000
vt 0.575793 0.000000
vt 0.125000 0.750000
vt 0.131190 0.750000
vt 0.755347 0.750000
vt 0.422719 0.000000
vt 0.500000 0.000000
vt 0.250000 0.750000
vt 0.187500 0.750000
vt 0.592678 0.000000
s 1
usemtl Material
f 46/1/1 58/2/2 1/2/3
f 19/3/4 2/4/5 4/4/6 20/3/7
f 49/3/8 44/4/9 2/4/5 19/3/4
f 46/1/1 1/2/3 3/2/10 15/5/11 51/6/12
f 55/7/13 56/8/14 6/9/15 24/10/16
f 57/11/17 45/12/18 5/12/19 16/13/20
f 16/13/20 5/12/19 8/12/21 18/13/22
f 20/3/7 4/4/6 7/4/23 21/3/24
f 21/3/24 7/4/23 9/4/25 22/3/26
f 34/14/27 10/12/27 42/12/27
f 26/15/28 13/16/29 14/17/30 27/18/31
f 25/19/32 11/20/33 13/16/29 26/15/28
f 48/21/34 54/22/35 12/22/36 23/21/37
f 53/19/38 52/16/39 11/20/33 25/19/32
f 28/23/40 18/13/22 36/24/41
f 56/8/42 57/11/17 16/13/20 6/9/43
f 4/25/44 15/5/11 17/5/45 7/25/46
f 44/25/47 59/26/48 2/25/49
f 58/27/50 47/28/51 1/27/52
f 13/16/29 21/3/24 22/3/26 14/17/30
f 11/20/33 20/3/7 21/3/24 13/16/29
f 50/29/53 49/3/8 19/3/4
f 50/29/53 19/3/4 20/3/7 11/20/33 52/16/39
f 45/12/54 53/19/38 25/19/32 5/12/55
f 5/12/55 25/19/32 26/15/28 8/12/56
f 8/12/56 26/15/28 27/18/31 10/12/57
f 54/22/35 55/7/13 24/10/16 12/22/36
f 18/13/22 8/12/21 10/12/58 34/14/58 36/24/41
f 17/5/45 41/30/59 35/31/60
f 23/21/37 12/22/36 33/32/61 37/33/62
f 12/22/36 24/10/16 40/7/63 33/32/61
f 27/18/31 14/17/30 32/17/64 39/18/65
f 14/17/30 22/3/26 38/3/66 32/17/64
f 10/12/57 27/18/31 39/18/65 42/12/67
f 22/3/26 9/4/25 31/4/68 38/3/66
f 9/25/69 43/34/70 31/25/71
f 7/25/46 17/5/45 35/31/60 43/34/70 9/25/69
f 24/10/16 6/9/15 30/9/72 40/7/63
f 15/5/11 3/2/10 29/2/73 41/30/59 17/5/45
f 3/27/74 23/21/37 37/33/62 29/27/75
f 6/9/43 16/13/20 18/13/22 28/23/40 30/9/76
f 1/27/52 47/28/51 48/21/34 23/21/37 3/27/74
f 2/25/49 59/26/48 51/6/12 15/5/11 4/25/44
